<svg xmlns="http://www.w3.org/2000/svg" viewBox="0 0 221 130">
  <rect width="221" height="130" fill="#2a4f9f"/>
  <circle cx="77" cy="47" r="6.4" fill="#fff"/>
  <path d="M71.6 38.1v29.7c0 9.9 5.9 13.5 12.7 13.5h.4c6.1 0 6.4-3.5 6.4-7.5v-1.5h-2c-4.2 0-6.6-.8-6.6-5.8V46.5c0-4.5-2.6-7.6-7.5-7.6z" fill="#fff"/>
  <path d="M46.1 27.3c-1.5 0-3.3 1-5.3 3.3-2.2 2.5-2.9 5-2.9 7.4v26.7c0 13 7.6 16.8 16.5 16.8 3.2 0 9.4-.9 9.4-7.3v-3.9h-.5c-2 1.2-4.8 1.5-7.6 1.5-4.2 0-6.9-1.9-6.9-7.7V46.5h8.4c4.5 0 6.7-2.7 6.7-5.5v-4.3H46.1v-9.8z" fill="#fff"/>
  <path d="M160.1 30v.4c-9.1-2.8-21-4.9-33.9-4.9-9.7 0-18.4 1.3-25.1 3.5v-4.2c0-1.2.3-3.2 1.6-5.3 2.5-3.9 9.6-8.3 17.9-8.3 8.2 0 15 4.1 18 8.3 1 .9 1.6 3.6 1.6 5.4l-.1 4.2z" fill="#fff"/>
  <path d="M122.9 59.7h5.7c3.1 0 5.7 2.4 5.7 5v7.2c0 11.3-12.3 11.4-16.6 11.4-11.1 0-23.6-7.8-23.6-22.5 0-15.2 11.5-24.3 26-24.3 7.8 0 13.5 3.6 13.5 9.7v3.6h-1.5c-2.9-2.4-7.8-3.7-12.9-3.7-7.8 0-13.9 5.4-13.9 13.3 0 5.8 2 14.4 14 14.4 2.9 0 4.5-.9 4.5-2.8v-5.6c0-1.3-.5-4.8-.9-5.5z" fill="#fff"/>
  <path d="M164.1 89.7h.4l-2e-3 6c-5e-3 2.2-1.4 6.5-3.1 8.7-2 3.4-12 12.7-25.8 12.7-13.8 0-23.6-7.7-27.6-13.8-1.8-3.1-2.4-6.5-2.4-8.4v-5.3h.4c1.3 1.8 4.8 6.1 8.6 8.9 3.3 2.3 9.3 6.5 19.8 6.5 10.5 0 17.7-4.1 20.5-6 3.3-2.3 6.3-4.9 9.2-9.3z" fill="#fff"/>
</svg>
